<?xml version="1.0" encoding="UTF-8" standalone="no"?>
<!-- Generator: Adobe Illustrator 16.0.0, SVG Export Plug-In . SVG Version: 6.00 Build 0)  -->

<svg
   xmlns:dc="http://purl.org/dc/elements/1.1/"
   xmlns:cc="http://creativecommons.org/ns#"
   xmlns:rdf="http://www.w3.org/1999/02/22-rdf-syntax-ns#"
   xmlns:svg="http://www.w3.org/2000/svg"
   xmlns="http://www.w3.org/2000/svg"
   xmlns:sodipodi="http://sodipodi.sourceforge.net/DTD/sodipodi-0.dtd"
   xmlns:inkscape="http://www.inkscape.org/namespaces/inkscape"
   version="1.1"
   id="Layer_1"
   x="0px"
   y="0px"
   width="96.042007"
   height="32.162998"
   viewBox="0 0 96.042 32.163"
   enable-background="new 0 0 151.042 32.163"
   xml:space="preserve"
   sodipodi:docname="sample.svg"
   inkscape:version="0.92.4 (5da689c313, 2019-01-14)"><metadata
   id="metadata19"><rdf:RDF><cc:Work
       rdf:about=""><dc:format>image/svg+xml</dc:format><dc:type
         rdf:resource="http://purl.org/dc/dcmitype/StillImage" /><dc:title></dc:title></cc:Work></rdf:RDF></metadata><defs
   id="defs17" /><sodipodi:namedview
   pagecolor="#ffffff"
   bordercolor="#666666"
   borderopacity="1"
   objecttolerance="10"
   gridtolerance="10"
   guidetolerance="10"
   inkscape:pageopacity="0"
   inkscape:pageshadow="2"
   inkscape:window-width="1920"
   inkscape:window-height="1001"
   id="namedview15"
   showgrid="false"
   inkscape:zoom="6.3481466"
   inkscape:cx="73.085061"
   inkscape:cy="0.31978446"
   inkscape:window-x="-9"
   inkscape:window-y="-9"
   inkscape:window-maximized="1"
   inkscape:current-layer="Layer_1" />


<g
   aria-label="12"
   transform="matrix(1.1265721,0,0,1.1396714,-2.0037831,-1.9722773)"
   style="font-style:normal;font-weight:normal;font-size:18.30801773px;line-height:1.25;font-family:sans-serif;text-align:center;letter-spacing:0px;word-spacing:0px;text-anchor:middle;fill:#e6e6e6;fill-opacity:1;stroke:none;stroke-width:0.7435835"
   id="text817-4"><path
     d="m 6.471091,20.615049 2.0113789,-0.250305 v -9.752953 l -2.0471368,0.03576 V 9.5479949 L 10.243544,8.7255644 V 20.364744 l 2.002439,0.250305 v 1.126372 H 6.471091 Z"
     style="font-style:normal;font-variant:normal;font-weight:normal;font-stretch:normal;font-size:18.30801773px;font-family:'Roboto Slab';-inkscape-font-specification:'Roboto Slab';text-align:center;text-anchor:middle;fill:#e6e6e6;stroke-width:0.7435835"
     id="path826"
     inkscape:connector-curvature="0" /><path
     d="m 13.80145,21.741421 v -1.206828 l 4.264123,-4.737914 q 1.144251,-1.278343 1.546527,-2.029258 0.411215,-0.750915 0.411215,-1.537588 0,-0.974401 -0.572126,-1.635921 -0.572125,-0.6704597 -1.510769,-0.6704597 -1.349858,0 -1.98456,0.6883387 -0.634702,0.688338 -0.634702,1.948802 H 13.6316 l -0.01788,-0.05364 q -0.0447,-1.680619 1.108493,-2.8248702 1.16213,-1.1442511 3.218206,-1.1442511 1.761074,0 2.798052,1.0280381 1.045917,1.0190982 1.045917,2.6013832 0,1.063796 -0.634702,2.127592 -0.625762,1.063796 -1.770013,2.297442 l -3.423814,3.727755 0.01788,0.0447 h 4.621702 l 0.143031,-1.49289 h 1.49289 v 2.869567 z"
     style="font-style:normal;font-variant:normal;font-weight:normal;font-stretch:normal;font-size:18.30801773px;font-family:'Roboto Slab';-inkscape-font-specification:'Roboto Slab';text-align:center;text-anchor:middle;fill:#e6e6e6;stroke-width:0.7435835"
     id="path828"
     inkscape:connector-curvature="0" /></g>
<g
   aria-label="SKU"
   transform="matrix(1.1265721,0,0,1.1396714,-2.0037831,-1.9722773)"
   style="font-style:normal;font-weight:normal;font-size:28.91127205px;line-height:1.25;font-family:sans-serif;letter-spacing:0px;word-spacing:0px;fill:#1a1a1a;fill-opacity:1;stroke:none;stroke-width:0.66050822"
   id="text817-6-0"><path
     d="M 43.323038,12.34588 H 40.231452 L 39.695012,9.522514 Q 39.158572,9.18371 38.128044,8.929607 37.097515,8.675504 35.939935,8.675504 q -1.69402,0 -2.625731,0.7199585 -0.917594,0.7058415 -0.917594,1.8351885 0,1.044645 0.959945,1.722253 0.974061,0.663491 3.345689,1.411683 3.402156,0.945828 5.152643,2.49868 1.764604,1.552851 1.764604,4.079764 0,2.639848 -2.089291,4.164466 -2.089291,1.524617 -5.505564,1.524617 -2.442212,0 -4.418569,-0.776425 -1.962239,-0.776426 -3.275105,-2.145759 v -4.291517 h 3.190404 l 0.437622,2.922184 q 0.621141,0.508206 1.679903,0.84701 1.072879,0.324688 2.385745,0.324688 1.69402,0 2.569263,-0.691725 0.889361,-0.691725 0.889361,-1.849305 0,-1.185814 -0.84701,-1.905773 -0.832893,-0.719958 -2.936301,-1.355215 -3.65626,-1.058763 -5.533799,-2.512797 -1.877538,-1.454033 -1.877538,-3.980946 0,-2.4986795 2.117525,-4.0797647 2.117524,-1.595202 5.322045,-1.6375525 2.371628,0 4.319751,0.7199585 1.948123,0.7199584 3.275105,1.9198891 z"
     style="font-style:normal;font-variant:normal;font-weight:bold;font-stretch:normal;font-size:28.91127205px;font-family:'Roboto Slab';-inkscape-font-specification:'Roboto Slab';fill:#1a1a1a;stroke-width:0.66050822"
     id="path819"
     inkscape:connector-curvature="0" /><path
     d="M 45.27116,23.865215 47.459269,23.44171 V 8.6896209 L 45.27116,8.2661159 V 5.7815535 h 8.399515 v 2.4845624 l -2.089291,0.423505 v 5.4914481 h 1.792838 L 57.326935,8.4355179 56.112887,8.2661159 V 5.7815535 h 8.145412 v 2.4845624 l -2.230459,0.3811545 -5.053826,6.7478456 5.674966,8.117179 2.061058,0.35292 v 2.470446 h -8.145412 v -2.470446 l 1.270515,-0.169402 -3.952713,-5.943186 h -2.301044 v 5.689083 l 2.089291,0.423505 v 2.470446 H 45.27116 Z"
     style="font-style:normal;font-variant:normal;font-weight:bold;font-stretch:normal;font-size:28.91127205px;font-family:'Roboto Slab';-inkscape-font-specification:'Roboto Slab';fill:#1a1a1a;stroke-width:0.66050822"
     id="path821"
     inkscape:connector-curvature="0" /><path
     d="m 74.210664,5.7815535 v 2.4845624 l -2.202226,0.423505 V 19.418413 q 0,2.032824 1.086996,3.049236 1.101113,1.002295 3.006885,1.002295 1.934006,0 3.035119,-1.002295 1.101113,-1.002295 1.101113,-3.049236 V 8.6896209 L 78.050442,8.2661159 V 5.7815535 h 8.51245 v 2.4845624 l -2.202226,0.423505 V 19.418413 q 0,3.458624 -2.286927,5.336163 -2.27281,1.877538 -5.97142,1.877538 -3.684493,0 -5.957303,-1.877538 -2.258693,-1.877539 -2.258693,-5.336163 V 8.6896209 L 65.698214,8.2661159 V 5.7815535 h 2.188109 4.122115 z"
     style="font-style:normal;font-variant:normal;font-weight:bold;font-stretch:normal;font-size:28.91127205px;font-family:'Roboto Slab';-inkscape-font-specification:'Roboto Slab';fill:#1a1a1a;stroke-width:0.66050822"
     id="path823"
     inkscape:connector-curvature="0" /></g>
<path
   style="opacity:1;fill:#0033cc;fill-opacity:1;stroke-width:0.17462897"
   d="M 11.9874,31.201869 C 8.6269357,29.816411 5.7480218,27.914382 3.3273912,25.480432 1.9939773,24.139679 1.5287786,23.530666 0.98349359,22.411935 L 0.30318408,21.016217 V 12.67332 4.3304218 L 7.0504372,2.2877931 13.797691,0.24516409 l 6.70849,2.03874161 6.708491,2.0387642 v 8.4251831 8.425205 l -0.601393,1.22948 c -0.802775,1.641184 -3.603548,4.504868 -5.909452,6.042181 -1.561883,1.041303 -4.621844,2.643119 -6.182567,3.236429 -0.707146,0.268827 -0.729572,0.264576 -2.53386,-0.479279 z m -0.138322,-9.0398 c 0,-0.64885 -0.02947,-0.684505 -0.651078,-0.788458 -0.358101,-0.05979 -0.865943,-0.109744 -1.12855,-0.110799 l -0.4774597,-0.0022 v -6.674343 c 0,-3.6709 -0.040418,-6.6743701 -0.089765,-6.6743701 -0.049381,0 -0.9931873,0.1975876 -2.0973643,0.4391076 -1.1041767,0.241496 -2.0404167,0.439084 -2.080516,0.439084 -0.040099,0 -0.072915,0.31617 -0.072915,0.702577 v 0.7025645 h 1.1310212 1.1310212 l -0.045857,5.48644 c -0.039455,4.720586 -0.082229,5.491345 -0.3063151,5.521537 -0.1432361,0.01937 -0.6315499,0.08453 -1.085135,0.144851 l -0.8247068,0.109744 v 0.691801 0.691822 H 8.5502859 11.849114 Z M 23.134543,21.173058 V 19.50446 h -0.954922 -0.954928 v 0.790395 0.790372 h -2.526715 -2.52672 l 2.284782,-2.502878 c 1.256626,-1.376585 2.600388,-2.970032 2.986142,-3.540984 1.574944,-2.331082 1.561265,-4.461308 -0.03906,-6.0802425 -0.915303,-0.925941 -1.731213,-1.2246342 -3.345353,-1.2246342 -2.618126,0 -4.489813,1.5113482 -4.763151,3.8461327 l -0.104926,0.896194 h 1.046204 1.046205 l 0.119689,-0.807511 c 0.08308,-0.560385 0.295653,-1.001747 0.694645,-1.442184 0.536119,-0.5918065 0.655841,-0.6392885 1.772769,-0.7031385 1.127858,-0.06444 1.229531,-0.03852 1.740665,0.444524 1.205824,1.1394905 1.073256,2.9746885 -0.346126,4.7916405 -0.415056,0.531317 -1.901566,2.246638 -3.303366,3.811831 -2.399419,2.679114 -2.548707,2.887441 -2.548707,3.556732 v 0.710935 h 4.86143 4.861422 z"
   id="path2845"
   inkscape:connector-curvature="0" /></svg>